<svg xmlns="http://www.w3.org/2000/svg" width="256" height="256"><path fill="#1976D2" fill-opacity=".016" fill-rule="evenodd" d="M0 128.004v128.004l128.25-.254 128.25-.254.254-127.75L257.008 0H0zm.485.496c0 70.4.119 99.053.265 63.672s.146-92.98 0-128S.485 58.1.485 128.5"/><path fill="#1976D2" fill-opacity=".326" fill-rule="evenodd" d="M126.462 1.062c-.361.584-1.738 1.472-3.059 1.975-1.322.502-2.403 1.632-2.403 2.51s-.675 2.271-1.5 3.096-1.5 1.153-1.5.728c0-.424-.521-.25-1.158.387-.876.876-.816 1.592.25 2.95 1.271 1.618 1.245 1.664-.275.475-1.453-1.137-1.917-.96-3.392 1.291-1.374 2.097-1.489 3.09-.588 5.067.616 1.352 1.58 2.459 2.142 2.459S116 23.155 116 24.567c0 2.056.374 2.449 1.876 1.972 1.35-.428 2.03-.005 2.426 1.508.478 1.826.855 1.954 2.874.967 2.03-.991 1.969-.811-.482 1.426-4.154 3.79-9.694 3.262-9.694-.925 0-2.825-2.199-4.76-4.435-3.902-1.192.458-1.597 1.565-1.377 3.768.278 2.78 0 3.155-2.56 3.447-1.579.181-3.357-.157-3.95-.75-.771-.771-.478-1.078 1.028-1.078 1.614 0 1.985-.467 1.584-2-.364-1.391-.031-2 1.093-2 .96 0 1.617-.828 1.617-2.035 0-1.12.746-3.174 1.657-4.565 1.573-2.4 1.55-2.637-.445-4.632-1.829-1.83-2.338-1.925-3.907-.734-1.543 1.171-1.624 1.166-.555-.032 1.776-1.992 1.55-3.002-.671-3.002-1.32 0-2.126-.937-2.579-3-.488-2.224-1.228-3-2.857-3-1.209 0-3.133-.655-4.276-1.455-1.898-1.33-2.186-1.251-3.346.916-.698 1.304-2.088 2.585-3.088 2.846-1.81.474-2.151 3.913-.632 6.372.387.625-.264 1.339-1.519 1.668-1.207.315-1.914.854-1.572 1.197.343.342-.239 1.485-1.293 2.539-2.441 2.441-2.424 4.149.064 6.4 1.715 1.552 2.219 1.606 3.75.405 1.605-1.259 1.642-1.227.407.349-1.881 2.399-.713 5.08 1.857 4.265 1.425-.453 2.005-.183 2.005.931 0 .862.73 1.567 1.622 1.567 1.353 0 1.409.258.336 1.551-1.961 2.363-7.377 1.514-7.766-1.216-.345-2.421-2.397-3.577-4.745-2.676-1.132.434-1.471 1.713-1.25 4.718.287 3.903.146 4.141-2.64 4.458-2.515.286-2.763.118-1.701-1.161.928-1.119.95-1.676.086-2.21-.865-.534-.851-.902.054-1.462.919-.568.937-1.259.074-2.872-.881-1.645-.814-2.74.295-4.857 1.334-2.546 1.26-2.891-1.085-5.064-1.384-1.283-3.138-2.094-3.898-1.802-.943.362-1.382-.244-1.382-1.907 0-1.824-.403-2.283-1.601-1.823-.88.338-1.967.022-2.415-.702-.657-1.065-1.299-.999-3.346.343-1.393.913-3.249 1.385-4.123 1.049C53.957 17.77 50 20.487 50 22.155c0 .465 1.107.845 2.461.845 3.1 0 6.539 3.605 6.539 6.855 0 1.712 1.932 4.393 6.25 8.675 3.438 3.408 6.882 6.393 7.653 6.634 1.151.36 1.083.928-.381 3.163-1.654 2.523-1.665 2.857-.154 4.527.898.992 1.632 2.754 1.632 3.916s.45 2.39 1 2.73 1 1.872 1 3.404.85 3.555 1.888 4.494c4.213 3.813 16.921 6.773 34.112 7.946 2.475.168-9.807.385-27.294.481L52.912 76l.309 59.75c.308 59.528.318 59.776 2.643 66.75C66.761 235.19 94.82 256 128 256s61.239-20.81 72.136-53.5c2.325-6.974 2.335-7.222 2.643-66.75l.309-59.75-31.294-.139c-22.856-.102-28.904-.352-22.43-.926 19.231-1.704 30.09-5.743 30.181-11.226.024-1.484.587-3.241 1.25-3.904S182 57.713 182 56.629s.734-2.783 1.632-3.775c1.511-1.67 1.5-2.004-.154-4.527-1.465-2.237-1.534-2.808-.383-3.192.771-.257 3.981-2.927 7.133-5.934 3.906-3.725 5.927-6.511 6.347-8.747.799-4.261 3.835-7.454 7.086-7.454 2.458 0 2.51-.109 1.078-2.25-.844-1.263-2.542-2.257-3.872-2.267-1.302-.009-3.437-.618-4.744-1.353-1.888-1.061-2.536-1.079-3.149-.088-.425.687-1.493.973-2.373.635-1.029-.395-1.601-.079-1.601.886 0 .825-.724 1.778-1.609 2.117-.885.34-2.639 1.572-3.898 2.739-2.108 1.954-2.177 2.336-.87 4.831 1.162 2.217 1.189 3.081.148 4.76-1.04 1.678-1.024 2.205.086 2.896.99.616 1.044 1.037.201 1.558-.872.539-.868 1.06.016 2.125.955 1.151.71 1.411-1.329 1.411-2.856 0-6.096-3.039-3.995-3.746 2.116-.712 1.479-5.047-.851-5.786-2.375-.754-3.543.118-4.06 3.032-.457 2.571-5.924 3.308-7.797 1.051-1.073-1.293-1.017-1.551.336-1.551.892 0 1.622-.705 1.622-1.567 0-1.114.58-1.384 2.005-.931 2.57.815 3.738-1.866 1.857-4.265-1.235-1.576-1.198-1.608.407-.349 1.531 1.201 2.035 1.147 3.75-.405 2.488-2.251 2.505-3.959.064-6.4-1.054-1.054-1.636-2.197-1.293-2.539s-.365-.882-1.572-1.197c-1.244-.326-1.905-1.045-1.524-1.66 1.353-2.191.892-5.982-.781-6.42-.916-.239-2.236-1.502-2.934-2.806-1.16-2.167-1.448-2.246-3.346-.916-1.143.8-3.067 1.455-4.276 1.455-1.629 0-2.369.776-2.857 3-.369 1.679-1.308 3-2.134 3-.811 0-2.877 1.311-4.592 2.914-3.037 2.838-3.074 2.979-1.446 5.464.92 1.404 1.672 3.467 1.672 4.587 0 1.207.657 2.035 1.617 2.035 1.124 0 1.457.609 1.093 2-.401 1.533-.03 2 1.584 2 1.506 0 1.799.307 1.028 1.078-.593.593-2.371.931-3.95.75-2.56-.292-2.838-.667-2.56-3.447.22-2.203-.185-3.31-1.377-3.768-2.262-.868-4.435 1.087-4.435 3.99 0 1.687-.718 2.539-2.519 2.991-2.927.735-8.089-1.129-8.887-3.209-.444-1.158-.157-1.221 1.503-.333 1.732.927 2.137.771 2.601-1.005.396-1.513 1.076-1.936 2.426-1.508 1.377.438 1.876.1 1.876-1.272 0-1.027-.515-2.382-1.144-3.011-.859-.859-.616-1.006.972-.591 3.29.861 5.033-3.702 2.747-7.191-1.475-2.251-1.939-2.428-3.392-1.291-1.501 1.175-1.539 1.133-.347-.389 1.629-2.08.704-3.939-1.532-3.08q-1.635.628-.909-.544c.398-.644.246-1.17-.336-1.17S135 7.089 135 5.975c0-1.218-.958-2.389-2.403-2.938-1.321-.503-2.698-1.391-3.059-1.975-.84-1.359-2.236-1.359-3.076 0M108.19 28.75c.186.962 1 1.75 1.81 1.75s1.624-.788 1.81-1.75c.236-1.228-.304-1.75-1.81-1.75s-2.046.522-1.81 1.75m36 0c.186.962 1 1.75 1.81 1.75s1.624-.788 1.81-1.75c.236-1.228-.304-1.75-1.81-1.75s-2.046.522-1.81 1.75m-65.502 3.896C77.272 34.061 78.073 36 80.073 36c1.398 0 1.968-.543 1.75-1.667-.357-1.841-2.064-2.759-3.135-1.687m96 0c-1.416 1.415-.615 3.354 1.385 3.354 1.398 0 1.968-.543 1.75-1.667-.357-1.841-2.064-2.759-3.135-1.687m-50.129 1.886c-1.793 1.356-1.575 1.468 2.872 1.468 4.166 0 4.646-.202 3.569-1.5-1.56-1.88-3.929-1.869-6.441.032m-15.086 1.512c-.325.526.336.956 1.468.956 2.415 0 2.658-.556.591-1.349-.807-.31-1.734-.133-2.059.393M144 36c-1.207.78-1.049.972.809.985 1.288.008 2.036-.427 1.691-.985-.743-1.202-.639-1.202-2.5 0m-49 1.5c-1.031 1.243-.924 1.497.628 1.485 1.029-.009 2.472-.396 3.206-.861 1.064-.675.997-.975-.332-1.485-2.185-.838-2.068-.867-3.502.861m61.565-.605c-.597.966 1.644 2.105 4.139 2.105 1.256 0 1.311-.277.296-1.5-1.388-1.673-3.59-1.973-4.435-.605m-75.007 5.012c-.309.498.34.671 1.441.383 2.335-.611 2.63-1.29.56-1.29-.793 0-1.693.408-2.001.907M171 41.383c0 .211.901.619 2.001.907 1.101.288 1.75.115 1.441-.383-.538-.871-3.442-1.313-3.442-.524"/><path fill="#1976D2" fill-opacity=".279" fill-rule="evenodd" d="M125.139 2.033C123.841 3.115 123.341 4 124.029 4s1.863-.787 2.611-1.75c1.295-1.667 1.425-1.667 2.72 0 .748.963 1.934 1.75 2.635 1.75s.131-.9-1.268-2c-3.044-2.394-2.671-2.396-5.588.033M89.278 5.25C87.352 7.74 86.903 9 87.941 9 88.523 9 89 8.352 89 7.559c0-2.39 1.93-2.827 4.794-1.086L96.5 8.119l-2.361-2.06c-2.74-2.39-3.536-2.523-4.861-.809M121.133 5c.295 2.426-1.219 4.995-2.99 5.07-1.379.059-1.35.186.181.789 1.003.396 1.818 1.152 1.811 1.68-.008.529.852 1.882 1.909 3.008 1.919 2.043 1.915 2.047-1.81 1.788-3.609-.251-3.584-.223.766.831 3.724.902 4.155 1.228 2.5 1.892-1.86.745-1.834.806.357.872 1.835.054 2.201.458 1.653 1.82-.387.962-.815 2.425-.951 3.25s-.993 1.645-1.903 1.823c-1.801.352-2.274-1.323-.656-2.323.55-.34.993-1.154.985-1.809-.01-.751-.35-.663-.92.239-1.135 1.792-5.065 2.17-5.065.486 0-.687.461-1.478 1.025-1.758.564-.279.451-.394-.25-.255-.701.14-1.424 1.273-1.607 2.519-.277 1.893.01 2.156 1.75 1.604 1.549-.492 2.082-.228 2.082 1.032 0 1.37.608 1.57 3.2 1.052 1.76-.352 3.56-1.196 4-1.875.635-.98.965-.98 1.6 0 .44.679 2.24 1.523 4 1.875 2.592.518 3.2.318 3.2-1.052 0-1.26.533-1.524 2.082-1.032 1.74.552 2.027.289 1.75-1.604-.183-1.246-1.007-2.447-1.832-2.67-1.228-.331-1.251-.23-.128.556.754.528 1.179 1.538.944 2.243-.297.893-1.062.602-2.516-.959-2.311-2.48-4.391-1.111-2.244 1.476.676.814.974 1.736.662 2.047-.841.841-4.718-.591-4.718-1.741 0-.546.52-.671 1.155-.279.721.446.882.274.43-.457-.398-.644-1.1-.938-1.561-.653s-.602-.383-.314-1.484c.308-1.178 1.401-2.03 2.657-2.071 2.072-.069 2.075-.094.133-.872-1.655-.664-1.224-.99 2.5-1.892 4.35-1.054 4.375-1.082.766-.831-3.725.259-3.729.255-1.81-1.788 1.057-1.126 1.916-2.486 1.908-3.022-.007-.536.517-1.152 1.166-1.368.8-.267.953.321.476 1.823-.601 1.896-.41 2.124 1.321 1.575 2.357-.748 4.183 1.691 3.428 4.577-.363 1.39-1.137 1.723-3.119 1.343-2.238-.429-2.334-.363-.636.439 3.001 1.418 3.489 1.289 4.397-1.164.975-2.636-.584-6.75-2.558-6.75-.736 0-1.339-.675-1.339-1.5s-.627-1.5-1.393-1.5c-1.548 0-3.021-2.688-2.74-5 .12-.981-.227-.826-1.002.447-.894 1.468-.9 2.041-.025 2.333 2.02.673 1.252 2.207-.98 1.958-1.177-.131-2.375.437-2.662 1.262-.438 1.255-.267 1.288 1.05.201 1.213-1 1.744-1.022 2.317-.095.472.763.321.942-.41.489-.635-.392-1.155-.236-1.155.346s.787 1.073 1.75 1.091c1.563.028 1.537.192-.243 1.538-1.818 1.374-2.074 1.327-2.903-.532-.5-1.121-1.672-2.038-2.604-2.038s-2.104.917-2.604 2.038c-.829 1.859-1.085 1.906-2.903.532-1.78-1.346-1.806-1.51-.243-1.538.963-.018 1.75-.509 1.75-1.091s-.52-.738-1.155-.346c-.731.453-.882.274-.41-.489.573-.927 1.104-.905 2.317.095 1.317 1.087 1.488 1.054 1.05-.201-.287-.825-1.485-1.393-2.662-1.262-2.232.249-3-1.285-.98-1.958.875-.292.869-.865-.025-2.333-.775-1.273-1.122-1.428-1.002-.447m41.18.494c-1.183.828-2.807 1.254-3.609.946-1.054-.404-1.679.498-2.25 3.25-.435 2.096-.701 4.19-.591 4.654s-.377.633-1.082.375c-.704-.258-1.168-.975-1.031-1.594.138-.619-.248-1.125-.857-1.125s-.848.675-.531 1.5q.574 1.5-1.271 1.5c-2.681 0-4.012 2.101-3.008 4.75.898 2.371 3.906 3.136 3.932 1 .012-.915.247-.885.879.113.691 1.09.95 1.104 1.295.07.512-1.537 3.672-.575 4.25 1.294 2.174 7.028 4.03 10.662 5.662 11.089 2.486.65 2.43-.504-.101-2.084-4.155-2.595-1.29-7.235 5.106-8.271l4.394-.711-3.917-.125c-2.154-.069-3.632-.409-3.285-.756s.162-1.51-.413-2.584c-.809-1.511-.632-2.416.785-4.014 1.802-2.031 1.795-2.044-.478-.85-2.249 1.181-2.295 1.115-1.798-2.605l.509-3.816-1.108 3.668-1.108 3.668-1.859-2.168-1.86-2.168 1.189 2.777c1.305 3.048.006 5.56-2.177 4.211-.909-.562-.886-.928.099-1.537.951-.588 1.003-1.148.195-2.125-1.238-1.496-.513-7.092.812-6.273.472.292 1.975-.202 3.342-1.098C165.071 4.724 167 5.189 167 7.559c0 .793.505 1.441 1.122 1.441.727 0 .609-.772-.336-2.195-1.917-2.888-2.89-3.121-5.473-1.311M127 8c0 1.65.45 3 1 3s1-1.35 1-3-.45-3-1-3-1 1.35-1 3M98.049 9.172c.624 2.175.544 3.614-.255 4.576-.895 1.078-.865 1.59.127 2.203.985.609 1.008.975.099 1.537-2.183 1.349-3.482-1.163-2.177-4.211l1.189-2.777-1.919 2.241-1.919 2.241-1.072-3.741L91.051 7.5l.52 3.75c.542 3.911-.187 4.614-2.594 2.5-.783-.687-.638-.303.324.855 2.294 2.764 1.301 5.788-1.422 4.33-1.056-.565-2.361-.755-2.9-.422s-.979.08-.979-.562c0-.746.903-.941 2.5-.54 2.784.698 3.292-.509 1.011-2.402-.819-.68-1.267-1.594-.997-2.032C87.153 11.943 86.023 9 84.987 9c-.971 0-.077 4.015 1.28 5.75.715.915.408 1.25-1.145 1.25-1.22 0-2.122.638-2.122 1.5 0 .825-.562 1.532-1.25 1.57s-.35.457.75.93c2.752 1.183 3.731 1.183 3 0-.886-1.434.8-1.233 2.971.355 1.327.97 1.621 1.894 1.034 3.25-.451 1.042-.722 2.491-.602 3.219s-.252 1.891-.826 2.584c-.76.916-.641 1.259.439 1.259.816 0 1.484-.375 1.484-.834s.506-.72 1.125-.583c2.195.488 2.006-2.266-.212-3.087-1.688-.624-1.923-1.039-.932-1.651.843-.521 1.812-.149 2.671 1.026 1.788 2.446 1.71 3.1-.652 5.462-2.491 2.491-2.511 2.946-.101 2.316 1.632-.427 3.488-4.061 5.662-11.089.58-1.876 3.52-2.714 4.419-1.26.613.993.893.971 1.32-.104.385-.968.565-1.001.621-.113.134 2.12 3.094 1.379 3.996-1 1.004-2.649-.327-4.75-3.008-4.75q-1.845 0-1.271-1.5c.317-.825.051-1.5-.59-1.5s-.902.427-.579.95-.298 1.423-1.38 2.003c-1.342.718-2.169.726-2.603.025-.349-.565-.264-.904.19-.753.453.151.956-.066 1.118-.483.523-1.351-.992-7.742-1.835-7.742-.451 0-.41 1.427.09 3.172m71.689 1.168c-.41 1.012-.523 2.199-.252 2.637.27.438-.178 1.352-.997 2.032S167 17.12 167 18.19c0 1.528.456 1.8 2.125 1.27 1.526-.484 1.914-.332 1.375.54-.536.867-.159 1.027 1.314.559 1.444-.458 2.362-.099 3.055 1.197 1.462 2.731-.064 4.484-3.214 3.694-2.707-.68-3.723.772-1.5 2.145.729.451.882.274.416-.481-.53-.857-.036-1.018 1.748-.57 3.217.807 4.953-1.852 3.414-5.23-.58-1.273-1.432-2.314-1.894-2.314s-.839-.675-.839-1.5c0-.862-.902-1.5-2.122-1.5-1.738 0-1.905-.262-.924-1.445.66-.795 1.048-2.482.864-3.75-.3-2.056-.416-2.106-1.08-.465m-53.849 2.382c-2.276.524-3.784 4.328-2.786 7.028.908 2.453 1.396 2.582 4.397 1.164 1.698-.802 1.602-.868-.636-.439-1.982.38-2.756.047-3.119-1.343-.737-2.818 1.074-5.324 3.329-4.608 1.059.336 1.926.157 1.926-.398 0-1.341-1.142-1.857-3.111-1.404m40.569 2.346c-.363.588-1.177.872-1.809.632-2.162-.822-5.649 1.195-5.649 3.268 0 2.315 1.79 2.744 2.604.623.415-1.082 1.278-1.198 3.712-.5 4.21 1.207 4.25 1.192 2.353-.905-1.266-1.399-1.37-2.085-.455-3 .652-.652.898-1.186.545-1.186s-.938.481-1.301 1.068m-55.081 1.131c-.444.719-.225.825.623.301s1.067-.418.622.302c-.377.611-1.275.885-1.994.609s-1.885.193-2.59 1.043c-1.504 1.813-1.477 1.819 2.646.637 2.434-.698 3.297-.582 3.712.5.853 2.223 2.778 1.641 2.424-.732-.365-2.443-4.368-4.4-5.443-2.66m-43.361 1.858C56.099 19.126 54.997 20 55.566 20c1.632 0 6.418-2.42 6.426-3.25.01-.948.153-.995-3.976 1.307m110.317-.634c0 .632.825 1.148 1.834 1.148 1.008 0 1.833-.301 1.833-.669s-.825-.884-1.833-1.148-1.834.037-1.834.669M194 17.021c0 .539-1.073.979-2.383.979-2.795 0-4.074 3.85-1.941 5.842 1.053.984 1.327.973 1.339-.053.011-.912.299-.85.985.211.678 1.049.974 1.115.985.219.008-.705-.66-1.541-1.485-1.857-1.749-.671-2.037-3.362-.36-3.362.627 0 1.715.787 2.418 1.748.703.962 1.604 1.423 2.003 1.025.398-.399.155-1.411-.541-2.249-1.04-1.253-.991-1.524.274-1.524.847 0 1.706.501 1.911 1.114.204.613 1.099.95 1.988.75 1.119-.252.568-.896-1.788-2.093-1.873-.951-3.405-1.288-3.405-.75M61.443 19.418c-1.067.78-1.566 1.792-1.11 2.249.457.456 1.406.043 2.109-.919C63.885 18.775 66 18.414 66 20.14c0 .627-.787 1.715-1.748 2.418-2.318 1.695-.992 2.921 1.486 1.374 1.303-.814 1.785-1.976 1.48-3.57-.513-2.687-2.865-3.072-5.775-.944M51 21c-.96 1.794-.76 2 1.942 2 2.119 0 3.503.75 4.67 2.531 1.876 2.863 2.895 2.64 1.923-.421-.421-1.325-1.854-2.267-4.091-2.687-3.504-.657-4.452-1.85-2.194-2.761.942-.38.951-.524.035-.583-.668-.043-1.696.821-2.285 1.921m151.75-1.338c2.255.91 1.312 2.104-2.177 2.758-2.521.473-3.69 1.363-4.421 3.362-.547 1.495-1.03 2.055-1.073 1.245-.053-.99-.612-.71-1.707.852-1.276 1.822-1.814 2.032-2.485.973-.698-1.103-.881-1.075-.99.148-.074.825-.081 1.837-.015 2.25.065.412-.38.75-.989.75s-.853-.661-.544-1.468c.31-.807.085-1.764-.499-2.125-.738-.456-.715-.872.073-1.36.824-.509.717-1.507-.387-3.625-1.155-2.215-1.525-2.458-1.53-1.005-.003 1.054-.29 1.632-.637 1.285-1.01-1.01-4.494 1.286-3.759 2.477.429.693 1.003.477 1.609-.606.738-1.319 1.248-1.431 2.351-.515.774.643 1.181 1.537.903 1.986s-.047 1.101.513 1.448c.691.426.684 1.255-.018 2.569-.818 1.527-.712 1.939.497 1.939 2.277 0 1.868 3.752-.551 5.046-1.147.614-2.31.891-2.585.616s.438-1.002 1.585-1.616c3.041-1.628 2.638-3.401-.589-2.592-2.343.589-2.514.478-1.377-.891.724-.873.849-1.563.281-1.563-.558 0-1.288.712-1.622 1.582-.87 2.266-.8 2.414 1.143 2.45 1.628.029 1.633.12.074 1.306-1.55 1.179-1.528 1.365.291 2.502 1.082.675 2.468.918 3.08.539.677-.418.833-.234.398.47-.401.649-1.899.93-3.404.639-2.205-.425-2.329-.356-.689.386 1.875.849 1.824.975-.815 2.016-3.128 1.233-5.942.261-7.548-2.609-.72-1.286-2.062-1.626-5.569-1.411-4.098.252-4.964-.082-7.647-2.955-2.927-3.133-3.081-3.178-4.723-1.382-1.607 1.758-1.602 1.785.096.503 1.551-1.17 1.976-1.095 3.132.555.735 1.05 1.278 2.297 1.206 2.771s3.397 1.879 7.71 3.123c8.388 2.42 12.941 5.124 13.511 8.024.318 1.62.087 1.589-2.333-.315-3.575-2.811-11.152-5.563-21.52-7.816-12.347-2.681-49.789-2.691-62-.016-10.397 2.278-17.957 5.03-21.52 7.832-2.42 1.904-2.651 1.935-2.333.315.566-2.882 5.107-5.6 13.31-7.966 4.202-1.212 7.515-2.393 7.36-2.623s.479-1.504 1.407-2.829c1.478-2.11 1.91-2.241 3.482-1.055 1.698 1.282 1.703 1.255.096-.503-1.642-1.796-1.796-1.751-4.723 1.382-2.661 2.849-3.568 3.206-7.52 2.963-2.472-.152-4.846.076-5.276.506-.431.431-.333.692.217.581 1.87-.377 4.836.033 4.277.591-.306.307-1.619.675-2.917.819-3.124.346-6.865 2.425-9.035 5.022C71.9 49.699 71.414 53 73 53c.55 0 1 1.039 1 2.309s.649 3.182 1.441 4.25c.793 1.067 1.208 2.898.923 4.068C74.932 69.498 95.257 75.225 116 74.795l9.5-.197-7.75-.341-7.75-.341.18-7.708.18-7.708.64 7.5.64 7.5.36-7.5.36-7.5.64 7.5.64 7.5.18-7.25L114 59h28l.18 7.25.18 7.25.64-7.5.64-7.5.18 7.704.18 7.705-6.75.349c-5.793.301-5.403.377 2.75.542 20.765.419 41.068-5.304 39.636-11.173-.285-1.17.13-3.001.923-4.068.792-1.068 1.441-2.98 1.441-4.25S182.45 53 183 53c1.543 0 1.182-3.604-.5-5-1.919-1.593-1.922-3-.007-3C185.083 45 196 33.458 196 30.721c0-3.783 3.625-7.721 7.108-7.721 2.652 0 2.85-.209 1.892-2-.589-1.1-1.617-1.964-2.285-1.921-.916.059-.907.203.035.583M68.253 23.739c-.897 1.905-.937 2.838-.143 3.329.771.477.784.88.04 1.339-.584.361-.809 1.318-.499 2.125.309.807.065 1.468-.544 1.468s-1.054-.337-.989-.75.034-1.65-.07-2.75c-.183-1.939-.212-1.941-.942-.079-.723 1.846-.814 1.835-2.305-.295-1.338-1.909-1.639-1.991-2.177-.589-1.406 3.665-.373 5.882 5.383 11.549C69.31 42.339 72.546 45 73.198 45c.651 0 .311-.661-.757-1.468-1.915-1.449-1.915-1.47.059-1.579 1.187-.066 1.467-.324.69-.635C68.706 39.523 65.056 33 68.535 33c1.183 0 1.309-.424.547-1.847-.68-1.27-.629-2.206.165-3 .634-.634.783-1.153.331-1.153-.453 0-.373-.562.176-1.25s.717-2.017.372-2.954c-.524-1.427-.829-1.274-1.873.943m11.465-1.489c-.912 2.545 1.307 4.961 3.948 4.298 1.796-.451 2.293-.291 1.763.566-.466.755-.313.932.416.481 2.317-1.431 1.153-2.753-1.845-2.095-2.982.655-3.509.097-3.075-3.25.09-.687-.045-1.25-.298-1.25s-.662.563-.909 1.25m4.532.439c.963.252 2.537.252 3.5 0 .963-.251.175-.457-1.75-.457s-2.713.206-1.75.457m14.563-.006c.721.289 1.584.253 1.916-.079s-.258-.568-1.312-.525c-1.165.048-1.402.285-.604.604m57 0c.721.289 1.584.253 1.916-.079s-.258-.568-1.312-.525c-1.165.048-1.402.285-.604.604M105 24.5c0 1.748-2.115 1.985-3.687.413-.687-.687-1.309-.729-1.689-.113-1.02 1.649 1.69 3.04 4.126 2.117 1.889-.716 3.319-3.917 1.75-3.917-.275 0-.5.675-.5 1.5m45.116-.156c-.065 1.029.716 2.061 1.768 2.336 1.276.334 1.722 1.11 1.383 2.406-.387 1.48.036 1.923 1.866 1.956 2.114.037 1.993.247-1.133 1.958-4.129 2.26-3.234 2.69 1.02.49 1.606-.831 3.398-2.403 3.982-3.493.986-1.843.882-1.901-1.475-.827-3.241 1.476-4.351.398-2.122-2.065 1.037-1.146 1.328-2.152.729-2.522-.548-.339-1.278-.158-1.624.401-1.002 1.621-3.322 1.176-3.821-.734-.415-1.59-.468-1.581-.573.094m-77.46 1.201c.304.794.956 1.195 1.449.89 1.24-.766 1.126-1.132-.554-1.777q-1.45-.557-.895.887m93.678-.813c.354.572-.299 1.287-1.451 1.588-2.116.554-2.124 3.4-.008 2.93.619-.137 1.125.125 1.125.583 0 .459.668.834 1.484.834 1.116 0 1.213-.328.388-1.321-.603-.726-.84-1.987-.528-2.801.313-.815.069-1.79-.542-2.167-.63-.389-.832-.236-.468.354M90.5 28c.34.55.816 1 1.059 1s.441-.45.441-1-.477-1-1.059-1-.781.45-.441 1m73.5.059c0 .582.45.781 1 .441s1-.816 1-1.059-.45-.441-1-.441-1 .477-1 1.059M70.872 29.75c-1.243 1.586-1.208 1.621.378.378C72.916 28.821 73.445 28 72.622 28c-.207 0-.995.788-1.75 1.75m25.339-.597c.517 1.571 6.574 5.866 8.187 5.805.606-.023-.473-.904-2.398-1.958-2.988-1.636-3.171-1.922-1.25-1.958 1.237-.023 2.25-.478 2.25-1.011s-.64-.723-1.422-.423-2.409.018-3.616-.628c-1.769-.947-2.108-.914-1.751.173M183 28.378c0 .207.787.995 1.75 1.75 1.586 1.243 1.621 1.208.378-.378-1.307-1.666-2.128-2.195-2.128-1.372m-72.834 2.104c-1.284.708-2.859 1.879-3.5 2.604-.961 1.086-.86 1.086.578-.002.96-.726 2.876-1.103 4.259-.839 1.881.36 2.262.177 1.514-.724-.55-.663-.704-1.501-.342-1.863.908-.907.229-.684-2.509.824m13.616.164c-.905.906-3.364 1.979-5.464 2.385-3.747.725-3.759.741-.624.854 2.092.075 4.163-.737 6-2.353 1.543-1.358 2.565-2.483 2.27-2.5-.294-.018-1.276.709-2.182 1.614m8.975 1.104c1.522 1.455 3.484 2.209 5.549 2.135 3.18-.114 3.178-.118-.553-.842-2.06-.4-4.557-1.361-5.549-2.135-.991-.774-.742-.396.553.842m10.555-2.105c.369.369.221 1.213-.329 1.876-.748.901-.367 1.084 1.514.724 1.383-.264 3.273.135 4.201.887.984.799 1.39.874.974.181-.391-.652-2.134-1.896-3.872-2.763s-2.857-1.274-2.488-.905m-19.21 3.941c-3.845 2.732-8.651 3.119-11.753.946-1.888-1.322-2.274-1.273-3.878.5-.979 1.082-3.061 1.968-4.626 1.968S101 37.45 101 38c0 1.959 5.719 1.056 7.172-1.133 1.126-1.695 1.92-1.963 3.872-1.305l2.456.828-3 .754c-2.076.521-.979.681 3.562.519 5.573-.199 7.004-.643 9.49-2.948C126.162 33.222 127.714 32 128 32s1.838 1.222 3.448 2.715c2.486 2.305 3.917 2.749 9.49 2.948 4.541.162 5.638.002 3.562-.519l-3-.754 2.456-.828c1.952-.658 2.746-.39 3.872 1.305 1.401 2.111 7.172 3.123 7.172 1.258 0-.481-1.149-.875-2.552-.875s-3.542-.924-4.75-2.053c-1.951-1.823-2.416-1.893-4.139-.625-2.934 2.159-7.852 1.718-11.964-1.072-2.026-1.375-3.776-2.461-3.889-2.414s-1.735 1.172-3.604 2.5m-52.05-.023c1.137 1.369.966 1.48-1.377.891-3.497-.877-3.456.808.075 3.106 2.393 1.557 2.572 1.572 1.378.115-1.182-1.442-1.148-1.675.25-1.675 1.81 0 1.879-.166 1.015-2.418-.334-.87-1.064-1.582-1.622-1.582-.568 0-.443.69.281 1.563m18.353 2.687L88.5 38.5l2.25-1.905C92.864 34.805 93.455 34 92.655 34c-.19 0-1.202 1.013-2.25 2.25m73.204-.827c.3.782 1.273 1.702 2.162 2.043 1.328.509 1.287.255-.232-1.423-2.178-2.407-2.677-2.567-1.93-.62m-85.641.942c1.322 1.679 1.236 2.051-.861 3.75C75.826 41.152 75.313 42 75.966 42s2.503-1.315 4.111-2.923C83.104 36.05 84.141 33.808 81.5 36c-1.203.998-1.847.973-3.25-.128-1.61-1.262-1.632-1.223-.282.493m92.532.873c-2.626 1.725-1.881 1.75 2.212.074.667-.273 2.334.714 3.706 2.194s3.076 2.457 3.788 2.171c.87-.349.756-.545-.349-.598-2.237-.108-3.175-2.97-1.624-4.956 1.127-1.443 1.073-1.471-.483-.251-1.188.932-2.152 1.055-3 .384-.864-.683-2.177-.38-4.25.982m-44.75-.532c1.237.238 3.262.238 4.5 0 1.238-.239.225-.434-2.25-.434s-3.487.195-2.25.434m-30 2.956c.688.278 1.813.278 2.5 0 .688-.277.125-.504-1.25-.504s-1.937.227-1.25.504m62 0c.688.278 1.813.278 2.5 0 .688-.277.125-.504-1.25-.504s-1.937.227-1.25.504m-89.017 1.462c.679.684 1.486.991 1.793.683.308-.308-.247-.867-1.233-1.243-1.425-.542-1.54-.428-.56.56m102.821-.156c-1.798.643-1.763.744.456 1.324 2.774.726 3.148.566 2.186-.934-.386-.602-1.563-.775-2.642-.39M108 42.202c-8.843.972-11.63 2.157-8.992 3.824.821.519 2.468.95 3.66.959 3.848.027 5.53 1.072 4.235 2.632-.631.761-1.938 1.383-2.903 1.383s-2.373.749-3.128 1.664c-1.263 1.533-.865 1.612 5.025 1 3.518-.365 9.368-.7 13-.743s5.928-.327 5.103-.63c-2.602-.957-5-3.534-5-5.373 0-.975 1.186-2.706 2.635-3.845L124.27 41l-3.885.134c-2.137.073-7.71.554-12.385 1.068m24.902.063c3.475 1.787 4.843 4.326 3.495 6.485-.601.962-2.174 2.306-3.495 2.985-2.077 1.068-1.184 1.239 6.598 1.261 4.95.014 10.8.278 13 .585 3.72.521 3.867.452 2.103-.979-1.044-.846-2.221-1.338-2.617-1.094-.395.245-1.491-.409-2.435-1.452-1.629-1.799-1.614-1.952.294-2.973 1.105-.592 2.792-.776 3.747-.409 1.224.469 1.511.302.973-.569-.42-.679-1.956-1.114-3.414-.967s-3.527-.228-4.597-.834c-1.545-.876-.929-.993 3-.572 2.72.291 5.519.985 6.22 1.541 1.302 1.034 3.061.228 1.943-.89-.709-.709-19.722-3.336-24.217-3.347l-3-.007zm-11.331 2.306C120.707 45.436 120 46.529 120 47c0 .964 2.828 4 3.726 4 .321 0-.231-.9-1.226-2-1.747-1.93-1.747-2.07 0-4 2.133-2.357 1.357-2.714-.929-.429m11.89.386c1.799 1.988 1.798 2.104-.019 4.293l-1.868 2.25 2.252-2.067c2.422-2.223 2.157-4.842-.597-5.899-1.328-.509-1.287-.255.232 1.423M95 45.005c0 .735-.787 2.273-1.75 3.416-1.74 2.067-1.737 2.068.437.231 1.316-1.112 2.71-1.533 3.5-1.058.929.559.884.222-.154-1.152a113 113 0 0 1-1.75-2.359c-.156-.229-.283.186-.283.922m64.173 1.09c-.809 1.295-.88 1.842-.184 1.412.625-.387 2.121.129 3.324 1.145 2.156 1.822 2.164 1.82.567-.152-.89-1.1-1.792-2.567-2.003-3.26-.247-.811-.854-.507-1.704.855m-72.673.304c-7.564 2.392-14.472 6.892-8.964 5.839 3.105-.594 5.763 1.512 5.101 4.041-.411 1.571-.106 1.81 1.681 1.319 1.2-.329 3.87-.881 5.932-1.226 3.546-.594 5.202-2.24 2.5-2.486-4.525-.413-7.051-.854-7.508-1.311-.882-.881 1.891-3.575 3.68-3.575C90.675 49 93 47.176 93 45.8c0-1.073-1.71-.916-6.5.599m76.5-.707c0 1.459 2.261 3.308 4.045 3.308.905 0 2.408.843 3.34 1.873 1.596 1.763 1.59 1.903-.095 2.386-.985.283-2.651.867-3.704 1.297q-1.912.783-1.249-.293c.426-.688-.071-.884-1.375-.543-2.734.715-2.094 1.162 3.935 2.753 5.084 1.341 5.103 1.337 5.103-1.032 0-1.545.911-2.855 2.604-3.741l2.603-1.365-4.853-2.086C167.091 45.556 163 44.546 163 45.692m-63.082 3.236c1.112.704.718 1.323-1.833 2.874-1.914 1.164-2.806 2.252-2.17 2.646.595.367 2.166-.593 3.491-2.134 2.415-2.807 2.515-4.327.285-4.299-.758.01-.676.342.227.913m54.733-.172c-.611.988 4.268 6.659 5.053 5.873.331-.33-.63-1.57-2.136-2.754-2.101-1.653-2.427-2.349-1.402-2.999.909-.576.955-.85.143-.861-.655-.008-1.401.325-1.658.741m11.099 2.906c.688.278 1.813.278 2.5 0 .688-.277.125-.504-1.25-.504s-1.937.227-1.25.504M79 53.378c0 .207.787.995 1.75 1.75 1.586 1.243 1.621 1.208.378-.378C79.821 53.084 79 52.555 79 53.378m95.574 1.289c-.352.917-.109 2.155.54 2.75.867.796.985.74.447-.211-.403-.711-.189-1.949.475-2.75.713-.859.792-1.456.193-1.456-.558 0-1.303.75-1.655 1.667M112 54.597c-16.399 1.442-31.56 4.963-33.992 7.893-.677.817-.972 2.161-.655 2.987.471 1.228 1.01 1.069 2.949-.87 3.258-3.258 13.309-5.38 32.207-6.797 26.391-1.98 57.789 1.397 63.189 6.797 1.939 1.939 2.478 2.098 2.949.87.317-.826.017-2.177-.667-3.001-1.494-1.801-12.012-5.041-20.98-6.464-6.972-1.106-37.573-2.068-45-1.415M145.343 66.5c.003 4.4.179 6.076.39 3.724s.209-5.952-.006-8-.388-.124-.384 4.276m-30.015 0c.005 3.85.185 5.302.402 3.228.216-2.075.213-5.225-.008-7s-.398-.078-.394 3.772m25 0c.005 3.85.185 5.302.402 3.228.216-2.075.213-5.225-.008-7s-.398-.078-.394 3.772m7.008.5c0 4.125.177 5.813.392 3.75s.216-5.437 0-7.5c-.215-2.062-.392-.375-.392 3.75m1.992-.5c.005 3.85.185 5.302.402 3.228.216-2.075.213-5.225-.008-7s-.398-.078-.394 3.772M53.373 77.471c-.264.686-.323 27.074-.132 58.639.391 64.69.094 61.896 8.367 78.758 9.916 20.211 29.069 34.886 51.607 39.541 32.696 6.754 66.541-9.731 81.182-39.541 8.334-16.969 8.103-14.678 8.103-80.368v-58l-74.324-.139c-58.597-.11-74.425.125-74.803 1.11m1.271 7.779.145 7.25 31.29 36.75L117.37 166H127l-.044-7.75-.044-7.75-31.007-36.25L64.897 78h-5.198l-5.199-.001zm37.018-5c1.106 1.237 8.903 10.35 17.326 20.25s16.034 18.777 16.913 19.726c1.47 1.587 1.559.615 1.099-12.016l-.5-13.742-7-8.198-7-8.198-11.424-.036L89.651 78zm91.421 6.846c-2.566 4.208-2.567 4.61-.023 10.545l2.06 4.806 1.94-4.333c2.43-5.427 2.433-7.846.012-11.518l-1.914-2.904zm-39.88-.84c-2.299 2.77-2.378 6.559-.238 11.398l2.138 4.832 1.948-4.352c2.356-5.26 2.453-7.97.392-10.911-1.774-2.534-2.754-2.758-4.24-.967M135.75 97.08c-2.146 1.25-2.272 4.242-.25 5.92 1.229 1.02 1.5.951 1.5-.378 0-1.779 3.487-2.261 4.5-.622 1.097 1.775 2.329 1.062 1.782-1.031-.474-1.812-3.884-5.018-5.255-4.939-.29.017-1.314.489-2.277 1.05M149 98c-1.1 1.1-2 2.765-2 3.7 0 1.322.267 1.433 1.2.5 1.537-1.537 4.517-1.55 5.026-.023.558 1.675 2.774.048 2.774-2.036 0-2.054-1.864-4.141-3.7-4.141-.715 0-2.2.9-3.3 2m26.75-.92c-2.096 1.221-2.286 4.23-.367 5.823 1.067.885 1.517.799 1.969-.377.643-1.677 4.648-2.13 4.648-.526 0 .55.408 1 .906 1 1.568 0-.06-3.994-2.253-5.531-2.451-1.717-2.603-1.729-4.903-.389m13.289 1.109c-2.223 2.386-3.019 6.191-.839 4.011 1.537-1.537 4.517-1.55 5.026-.023.558 1.675 2.774.048 2.774-2.036 0-2.037-1.86-4.141-3.661-4.141-.694 0-2.179.985-3.3 2.189M141 104.395c0 .217 1.8.567 4 .776s4 .032 4-.395-1.8-.776-4-.776-4 .178-4 .395m40 0c0 .217 1.8.567 4 .776s4 .032 4-.395-1.8-.776-4-.776-4 .178-4 .395m-37.792 4.644c-1.057 1.692-1.013 2.299.259 3.571 1.377 1.377 1.689 1.377 3.066 0 1.272-1.272 1.316-1.879.259-3.571-.7-1.122-1.507-2.039-1.792-2.039s-1.092.917-1.792 2.039m19.318.911c-1.966 3.801-1.939 4.219.647 10.23l2.173 5.051 1.771-4.365c2.222-5.478 2.316-8.803.326-11.643-2.069-2.955-3.091-2.804-4.917.727M184 108.417c0 .779-.558 1.602-1.241 1.83-.892.297-.752.903.5 2.155 1.564 1.564 1.897 1.585 3.274.208 1.272-1.272 1.316-1.879.259-3.571-1.478-2.366-2.792-2.659-2.792-.622m3.5-.417c.34.55.816 1 1.059 1s.441-.45.441-1-.477-1-1.059-1-.781.45-.441 1m-32.833 11.667c-1.051 1.05-.78 3.82.498 5.098.887.887 1.47.756 2.439-.55 1.069-1.438 1.604-1.513 3.322-.465 3.031 1.851 3.288 1.564 1.574-1.75-1.165-2.253-2.251-3-4.359-3-1.544 0-3.108.3-3.474.667m14.031 1.114c-1.997 2.207-2.459 5.38-.498 3.419 1.724-1.724 4.8-1.479 4.8.383 0 .871.563 1.396 1.25 1.167s1.25-1.729 1.25-3.333c0-2.383-.467-2.971-2.552-3.214-1.529-.178-3.233.454-4.25 1.578M54.689 134.132l.188 13.133 7.812 9.311 7.811 9.311 11.405.057c10.768.053 11.321-.042 9.908-1.694C61.544 128.854 54.798 121 54.663 121c-.09 0-.078 5.909.026 13.132M161 127c0 .55 1.8 1 4 1s4-.45 4-1-1.8-1-4-1-4 .45-4 1m-18.474 4.95c-1.993 3.853-1.934 4.873.612 10.628l2.137 4.833 1.807-4.456c.993-2.45 1.831-5.265 1.862-6.255.071-2.296-2.697-7.7-3.944-7.7-.522 0-1.635 1.328-2.474 2.95m18.346-1.2c-1.243 1.586-1.208 1.621.378.378 1.666-1.307 2.195-2.128 1.372-2.128-.207 0-.995.787-1.75 1.75m2.562.568c-1.465 3.162.823 5.568 3.115 3.276 1.257-1.257 1.299-1.865.243-3.555-1.616-2.587-2.047-2.551-3.358.279m3.566-1.94c0 .207.787.995 1.75 1.75 1.586 1.243 1.621 1.208.378-.378-1.307-1.666-2.128-2.195-2.128-1.372m15.716 2.526c-2.18 3.69-2.159 4.196.425 10.203l2.142 4.978 1.858-4.152c2.268-5.064 2.363-8.768.302-11.71-2.03-2.899-2.667-2.807-4.727.681M135.2 142.2c-1.487 1.487-1.561 4.459-.133 5.341.586.363 1.684-.173 2.439-1.191 1.189-1.604 1.66-1.674 3.53-.531 3.007 1.838 3.37.967.905-2.166-2.234-2.841-4.8-3.394-6.741-1.453m13.498.581c-2.476 2.736-2.252 4.574.363 2.977 1.759-1.074 2.272-.973 3.504.688 1.8 2.428 3.76.882 3.27-2.581-.437-3.083-4.737-3.736-7.137-1.084m26.502-.581c-1.487 1.487-1.561 4.459-.133 5.341.586.363 1.684-.173 2.439-1.191 1.189-1.604 1.66-1.674 3.53-.531 3.007 1.838 3.37.967.905-2.166-2.234-2.841-4.8-3.394-6.741-1.453m13.397.965c-2.181 3.113-2.004 4.1.464 2.593 1.759-1.074 2.272-.973 3.504.688 1.8 2.428 3.76.882 3.27-2.581-.476-3.361-5.063-3.805-7.238-.7M141 149.154c0 .465 1.8.846 4 .846s4-.381 4-.846c0-.466-1.8-.846-4-.846s-4 .38-4 .846m40.516-.18c-.394.637.904 1.026 3.425 1.026 2.232 0 4.059-.358 4.059-.796 0-1.201-6.755-1.409-7.484-.23m-40.535 3.549c-1.057 1.273-.995 1.42.378.893.902-.347 1.641-1.032 1.641-1.523 0-1.286-.579-1.105-2.019.63m2.813.69c-1.326 2.042-1.31 2.469.149 3.99 1.54 1.603 1.695 1.603 2.66 0 .716-1.189.67-2.393-.15-3.99l-1.174-2.287zm3.206-1.32c0 .491.739 1.176 1.641 1.523 1.373.527 1.435.38.378-.893-1.44-1.735-2.019-1.916-2.019-.63m33.981.63c-1.057 1.273-.995 1.42.378.893.902-.347 1.641-1.032 1.641-1.523 0-1.286-.579-1.105-2.019.63m2.843.643c-1.364 2.101-1.352 2.504.119 4.037 1.539 1.603 1.699 1.599 2.734-.058.81-1.297.779-2.358-.119-4.036l-1.218-2.277zm3.176-1.788c0 .207.787.995 1.75 1.75 1.586 1.243 1.621 1.208.378-.378-1.307-1.666-2.128-2.195-2.128-1.372m-80.5 22.621c-2.2.487-6.588.912-9.75.943L91 175v46l4.25-.016c2.338-.008 6.95-.667 10.25-1.464s7.927-1.465 10.282-1.484c5.247-.044 11.666 2.43 10.635 4.098-.454.735-.294.908.428.461.818-.505 1.155-7.264 1.155-23.128v-22.416l-3.162-1.635c-3.774-1.952-12.779-2.647-18.338-1.417m27.5.779-4.5 1.778-.269 22.752-.269 22.752 3.979-2.03c4.742-2.419 11.337-2.603 19.059-.53 3.025.812 7.637 1.482 10.25 1.488L167 221v-45.723l-8.75-.642c-4.812-.353-11.225-.865-14.25-1.138-3.89-.352-6.817.023-10 1.281m-50 4.281c0 .582.45.781 1 .441s1-.816 1-1.059-.45-.441-1-.441-1 .477-1 1.059m18 .563c0 1.379.242 1.422 1.611.286 1.452-1.206 1.575-.824 1.25 3.878-.323 4.669-.151 5.215 1.639 5.215s1.962-.546 1.639-5.215c-.316-4.565-.172-5.059 1.153-3.959 1.218 1.011 1.626 1.004 2.091-.035.318-.711.474 1.071.347 3.959-.18 4.104.097 5.249 1.27 5.247 1.151-.003 1.5-1.283 1.5-5.501V178h-6.25c-5.098 0-6.25.299-6.25 1.622m37.5 9.881c0 5.352.074 5.497 2.795 5.497 3.2 0 7.705-3.95 7.705-6.755 0-2.893-2.056-4.245-6.45-4.242l-4.05.003zm11.346.052.346 5.557 3.146-.306c2.216-.216 3.256-.897 3.52-2.306.369-1.971.343-1.972-1.742-.095-2.087 1.879-2.116 1.876-2.116-.167 0-1.139.563-2.334 1.25-2.655 1-.466 1-.7 0-1.166-1.486-.694-1.685-3.417-.25-3.417.55 0 1 .45 1 1s.45 1 1 1 1-.675 1-1.5c0-1.066-1.084-1.5-3.75-1.501l-3.75-.002zM142 189c0 3.309.339 4 1.965 4 1.08 0 2.446-.9 3.035-2 1.392-2.6-.328-6-3.035-6-1.626 0-1.965.691-1.965 4m-42.812 5.632c-.076 1.998-.404 4.473-.73 5.5-.436 1.375-.093 1.868 1.301 1.868 1.537 0 1.833-.613 1.57-3.25l-.324-3.25 1.5 3.25c.826 1.787 1.714 3.25 1.974 3.25s1.399-1.687 2.529-3.75l2.057-3.75-.332 3.75c-.275 3.107-.013 3.75 1.527 3.75 1.022 0 1.612-.398 1.311-.884-.3-.487-.625-2.962-.721-5.5-.212-5.603-2.166-6.15-3.986-1.116-.696 1.925-1.535 3.5-1.864 3.5s-1.168-1.575-1.864-3.5c-1.669-4.615-3.773-4.545-3.948.132M113.5 196.5v5.5h3.25c2.392 0 3.25-.449 3.25-1.7 0-1.322-.267-1.433-1.2-.5-1.763 1.763-2.8 1.467-2.8-.8 0-1.227.677-2.012 1.75-2.03 1.667-.029 1.667-.079 0-1.05-.963-.561-1.75-1.762-1.75-2.67 0-1.283.267-1.383 1.2-.45 1.633 1.633 2.8 1.508 2.8-.3 0-1.026-1.028-1.5-3.25-1.5h-3.25zm23.266 6.358c.56 5.246 1.684 7.142 4.234 7.142 2.51 0 3.639-1.851 4.32-7.083.453-3.484.271-4.584-.76-4.584-.965 0-1.313 1.321-1.208 4.584.132 4.09-.103 4.619-2.182 4.913-2.193.311-2.314.049-2.039-4.41.227-3.698-.056-4.792-1.285-4.972-1.3-.191-1.489.581-1.08 4.41m11.234-.527c0 2.348-.54 4.809-1.2 5.469-.933.933-.75 1.2.827 1.2 1.683 0 1.952-.509 1.586-3-.6-4.091.426-3.769 2.389.75l1.628 3.75 1.859-4c1.798-3.87 2.488-3.329 2.099 1.649-.089 1.141.446 1.498 1.737 1.16 1.612-.421 1.736-.955.913-3.932-.523-1.895-.653-4.383-.29-5.53 1.078-3.394-1.764-1.694-4.106 2.456l-2.058 3.648-1.222-3.38c-.672-1.859-1.884-3.634-2.692-3.944-1.152-.442-1.47.36-1.47 3.704m-47.541 2.736c-1.077 1.742.363 2.325 2.128.861 1.484-1.232 1.602-.875 1.274 3.858-.286 4.13-.049 5.215 1.139 5.215s1.425-1.085 1.139-5.215c-.321-4.642-.189-5.072 1.206-3.914.862.715 2.103.969 2.758.564.882-.545 1.055.471.667 3.914l-.524 4.65h3.377c2.512 0 3.377-.436 3.377-1.7 0-1.322-.267-1.433-1.2-.5-1.763 1.763-2.8 1.467-2.8-.8 0-1.227.677-2.012 1.75-2.03 1.667-.029 1.667-.079 0-1.05-.963-.561-1.75-1.762-1.75-2.67 0-1.283.267-1.383 1.2-.45 1.633 1.633 2.8 1.508 2.8-.3 0-1.207-1.549-1.5-7.941-1.5-4.546 0-8.223.456-8.6 1.067m12.805 14.651c1.52.229 3.77.223 5-.014s-.014-.425-2.764-.418-3.756.202-2.236.432m26.486-.012c1.238.238 3.262.238 4.5 0 1.238-.239.225-.434-2.25-.434s-3.488.195-2.25.434m-31.937.977c.721.289 1.584.253 1.916-.079s-.258-.568-1.312-.525c-1.165.048-1.402.285-.604.604m37 1c.721.289 1.584.253 1.916-.079s-.258-.568-1.312-.525c-1.165.048-1.402.285-.604.604M126.2 225.2c-2.248 2.248-1.333 3.8 2.241 3.8 4.085 0 5.174-1.242 2.997-3.419-1.888-1.888-3.606-2.013-5.238-.381m-42.202 2.05c.001.412 9.114.661 20.252.551 20.263-.199 17.883-.552-7.002-1.041-7.288-.143-13.251.078-13.25.49m59.752.496c5.637.178 14.863.178 20.5 0s1.025-.324-10.25-.324-15.887.146-10.25.324"/><path fill="#1976D2" fill-opacity=".565" fill-rule="evenodd" d="M126.2 15.2c-2.756 2.756-.327 6.554 3.3 5.162 1.801-.692 1.964-3.498.3-5.162-1.504-1.504-2.096-1.504-3.6 0m-33.95 2.518c-1.763.633-1.559 5.226.263 5.925 1.763.677 4.487-1.284 4.487-3.23 0-1.615-3.005-3.32-4.75-2.695m68.44.436c-2.314 1.295-2.129 4.572.301 5.343q4.01 1.275 4.009-2.949c0-2.704-1.885-3.751-4.31-2.394m-68.124.739c-.731 1.183.367 4.107 1.541 4.107 1.183 0 1.152-3.722-.038-4.457a1.094 1.094 0 0 0-1.503.35m69.117-.243c-.997.998-.836 4.35.21 4.35 1.306 0 2.316-3.191 1.323-4.184-.467-.467-1.157-.542-1.533-.166M83.5 20c.34.55.816 1 1.059 1s.441-.45.441-1-.477-1-1.059-1-.781.45-.441 1m10.313 5.683c.721.289 1.584.253 1.916-.079s-.258-.568-1.312-.525c-1.165.048-1.402.285-.604.604m67 0c.721.289 1.584.253 1.916-.079s-.258-.568-1.312-.525c-1.165.048-1.402.285-.604.604M96.5 29c.995 1.1 2.035 2 2.31 2s-.315-.9-1.31-2-2.035-2-2.31-2 .315.9 1.31 2m61.905.25L156.5 31.5l2.25-1.905c1.238-1.048 2.25-2.06 2.25-2.25 0-.8-.805-.209-2.595 1.905M61 29.998c-1.319.82-1.294 1.268.213 3.717.942 1.532 2.4 2.723 3.239 2.648.84-.075 1.299.231 1.021.681s-.08 1.081.44 1.402c.547.339.774-.768.538-2.631-.515-4.071-3.365-7.113-5.451-5.817m100.564.295c.376.986.935 1.541 1.243 1.233s.001-1.114-.683-1.793c-.988-.98-1.102-.865-.56.56m30.174.157c-.924.675-1.889 2.919-2.145 4.986l-.466 3.759 2.17-1.847c4.653-3.962 5.871-6.686 3.411-7.63-.71-.272-2.047.057-2.97.732m-76.925 6.233c.721.289 1.584.253 1.916-.079s-.258-.568-1.312-.525c-1.165.048-1.402.285-.604.604m48.92 3.441c.679.684 1.486.991 1.793.683.308-.308-.247-.867-1.233-1.243-1.425-.542-1.54-.428-.56.56m-16.983 1.538c.688.278 1.813.278 2.5 0 .688-.277.125-.504-1.25-.504s-1.937.227-1.25.504m7 1c.688.278 1.813.278 2.5 0 .688-.277.125-.504-1.25-.504s-1.937.227-1.25.504m-76.193 1.92c-1.066.78-1.516 1.411-.998 1.403 1.382-.023 3.961-1.799 3.41-2.349-.259-.26-1.345.166-2.412.946m46.025-.266c-2.589 1.893-1.6 4.961 1.925 5.97 3.971 1.137 8.493-.58 8.493-3.226 0-3.646-6.752-5.424-10.418-2.744M176 43.885c0 .897 3.005 2.443 3.598 1.851.171-.172-.568-.861-1.643-1.532-1.075-.672-1.955-.815-1.955-.319M157.5 46c-.34.55-.141 1 .441 1S159 46.55 159 46s-.198-1-.441-1-.719.45-1.059 1M98 47c.825.533 1.95.969 2.5.969s.325-.436-.5-.969-1.95-.969-2.5-.969-.325.436.5.969m64.34.444c.511 1.331.231 1.555-1.326 1.06-1.086-.344-2.675-.234-3.532.246-1.345.753-1.248 1.136.713 2.811 1.849 1.579 2.015 1.609.895.165-1.719-2.218-.914-3.122 1.967-2.208 1.761.559 1.928.896.825 1.667-1.137.796-1.116.887.118.516.825-.248 1.369-1.012 1.209-1.699-.177-.757.314-1.015 1.25-.656 2.067.793 1.944.443-.613-1.746-1.893-1.62-2.075-1.639-1.506-.156M172 47c.825.533 1.95.969 2.5.969s.325-.436-.5-.969-1.95-.969-2.5-.969-.325.436.5.969m-80.559 1.502c-1.688 1.307-1.707 1.421-.15.878 1.153-.403 1.687-.181 1.5.622-.16.687.384 1.451 1.209 1.699 1.234.371 1.255.28.118-.516-1.103-.771-.936-1.108.825-1.667 2.881-.914 3.686-.01 1.967 2.208-1.12 1.444-.954 1.414.895-.165 1.961-1.675 2.058-2.058.713-2.811-.857-.48-2.506-.571-3.663-.204-1.414.449-1.881.305-1.421-.439.935-1.512.313-1.389-1.993.395m58.123.602c.315.509 2.117 1.572 4.004 2.36 1.888.789 3.432 2.132 3.432 2.985S157.466 56 158.035 56c2.245 0-1.233-4.049-5.07-5.903-2.185-1.056-3.716-1.503-3.401-.993m-48.802 1.969c-.955.557-2.209 1.893-2.785 2.97-.824 1.539-.727 1.957.456 1.957.928 0 1.283-.576.928-1.503-.394-1.026.487-1.965 2.781-2.961 1.847-.802 2.683-1.462 1.858-1.466s-2.282.446-3.238 1.003m-14.883 1.206c.483.483 2.17.716 3.749.519 2.644-.33 2.574-.399-.877-.877-2.15-.298-3.375-.145-2.872.358M169 52c-.901.582-1.025.975-.309.985.655.008 1.469-.435 1.809-.985.767-1.242.421-1.242-1.5 0m-6 1c-1.828 1.181-.249 1.181 2.5 0 1.319-.567 1.489-.878.5-.914-.825-.031-2.175.381-3 .914m-88.756 2.406c-.231 3.076 1.596 4.75 3.861 3.538 2.944-1.576 2.401-4.643-.907-5.128-2.24-.329-2.833-.01-2.954 1.59m47.025-1.713c.973.254 2.323.237 3-.037s-.119-.481-1.769-.461-2.204.244-1.231.498m11 0c.973.254 2.323.237 3-.037s-.119-.481-1.769-.461-2.204.244-1.231.498m46.481.023c-3.088.468-3.739 3.219-1.25 5.284 2.057 1.707 4.529-.384 4.262-3.606-.109-1.317-.213-2.327-.23-2.244s-1.27.337-2.782.566m-68.937 4.967c.721.289 1.584.253 1.916-.079s-.258-.568-1.312-.525c-1.165.048-1.402.285-.604.604m34.937-.021c.688.278 1.813.278 2.5 0 .688-.277.125-.504-1.25-.504s-1.937.227-1.25.504M91.862 60.51c-11.904 2.372-15.868 5.884-10.04 8.898 3.454 1.786 18.414 4.906 20.884 4.356.987-.22-.456-.733-3.206-1.14l-5-.74.337-5.35.337-5.35 4.663-.974c3.492-.729 3.91-.98 1.663-.998-1.65-.013-5.987.571-9.638 1.298m64.301-.3 4.663.974.337 5.35.337 5.35-4.814.661c-2.648.363-4.572.903-4.275 1.199.936.936 15.906-1.845 20.339-3.778 5.024-2.191 5.41-4.315 1.181-6.502-3.246-1.678-16.617-4.545-20.269-4.346-1.189.065-.064.557 2.501 1.092M109.25 74.689c.963.252 2.537.252 3.5 0 .963-.251.175-.457-1.75-.457s-2.713.206-1.75.457m34 0c.963.252 2.537.252 3.5 0 .963-.251.175-.457-1.75-.457s-2.713.206-1.75.457M53.264 134.75c.432 63.142.418 62.976 6.609 76.63 9.287 20.481 26.888 35.586 48.684 41.776 11.158 3.17 27.728 3.17 38.886 0 26.256-7.457 45.577-27.159 53.111-54.156 1.633-5.852 1.852-12.261 2.196-64.25l.381-57.75h-91.205l8.037 9.396L128 95.793v13.103c0 7.207-.338 13.075-.75 13.04-.91-.078-34.135-39.006-36.25-42.474-1.47-2.41-1.758-2.458-14.5-2.445-7.15.008-12.486.344-11.857.748s15.141 17.144 32.25 37.2L128 151.43V166h-10.975L90.34 134.75a61679 61679 0 0 0-31.592-36.978l-4.908-5.728.33-7.524c.182-4.139-.037-7.524-.485-7.522-.449.001-.638 25.989-.421 57.752m89.375-48.322c-1.891 2.886-2.085 6.268-.587 10.209 1.031 2.712 1.012 2.731-.925.977-2.421-2.19-4.923-1.815-6.802 1.02-1.239 1.869-1.209 2.339.241 3.789 1.541 1.541 1.742 1.538 2.9-.046.685-.936 1.889-1.455 2.677-1.152 1.747.67 1.692 5.064-.089 7.21-1.543 1.859-.741 2.001 2.262.401 1.938-1.032 2.037-.985.877.422-1.092 1.323-1.02 1.921.435 3.621 1.696 1.98 1.779 1.984 3.058.16.722-1.032 1.022-2.701.667-3.708-.53-1.498-.402-1.604.7-.581 2.146 1.991 3.434 1.446 1.537-.651-1.184-1.307-1.373-2.115-.607-2.589.813-.502.8-1.066-.047-2.087-.911-1.098-.782-1.545.596-2.074 1.14-.437 2.237-.018 3.122 1.193 1.275 1.743 1.476 1.756 3.033.199 1.372-1.372 1.463-2.117.512-4.204-1.354-2.972-4.638-3.355-7.392-.862-1.794 1.623-1.803 1.559-.283-2.077 1.45-3.471 1.433-4.023-.228-7.371-2.256-4.545-3.581-4.967-5.657-1.799m40.077.476c-1.955 3.31-2.182 6.357-.681 9.162 1.204 2.249.71 2.416-2.052.691-2.528-1.578-5.341-.016-5.82 3.232-.427 2.891 1.815 4.423 3.367 2.301.629-.861 1.727-1.371 2.439-1.134 1.449.483 2.299 6.844.915 6.844-.486 0-.884.466-.884 1.035 0 .665.804.607 2.25-.164 2.003-1.067 2.106-1.024.943.387-1.089 1.321-1.031 1.909.352 3.524 1.632 1.906 1.708 1.894 4.422-.671 2.439-2.307 2.595-2.803 1.332-4.262-1.009-1.166-1.102-1.853-.316-2.339.813-.502.8-1.066-.047-2.087-.911-1.098-.782-1.545.596-2.074 1.14-.437 2.237-.018 3.122 1.193 1.275 1.743 1.476 1.756 3.033.199 3.781-3.781-2.698-9.144-6.634-5.491-1.109 1.029-1.201.897-.519-.75 1.289-3.113.918-7.161-.911-9.953-2.13-3.25-2.805-3.201-4.907.357m-19.555 21.619c-2.376 3.02-2.789 7.411-1.015 10.793 1.125 2.146 1.109 2.152-.926.346-2.498-2.216-5.001-1.887-6.848.9-1.161 1.753-1.151 2.354.069 4 1.412 1.907 1.458 1.907 2.853.026 2.967-4.005 6.144 1.789 3.379 6.162-.435.688-.404 1.25.068 1.25s1.49-.562 2.261-1.25c1.192-1.063 1.204-.989.077.5-1.1 1.454-1.097 2.046.016 3.5.736.963 1.429 1.9 1.539 2.083s1.092-.559 2.183-1.65c1.507-1.507 1.707-2.274.833-3.195-.892-.941-.59-1.046 1.35-.467 2.45.73 2.464.704.689-1.284-1.394-1.562-1.509-2.151-.5-2.557 1.072-.432 1.075-.694.014-1.442-1.036-.73-.963-1.192.358-2.289 1.426-1.183 1.844-1.116 3.016.487 1.124 1.538 1.626 1.64 2.892.59 2.066-1.715 1.926-3.359-.473-5.53-1.656-1.498-2.438-1.616-4.5-.676-2.757 1.256-2.986.965-1.472-1.865 1.232-2.302.514-5.611-1.913-8.817l-1.789-2.363zM187 109c0 .55.477 1 1.059 1s.781-.45.441-1-.816-1-1.059-1-.441.45-.441 1M54 133.169v13.613l8.113 9.609L70.226 166h11.387c6.263 0 11.387-.233 11.387-.517 0-.477-32.972-39.484-37.155-43.955-1.8-1.924-1.845-1.637-1.845 11.641m88.557-1.946c-1.806 2.578-2.024 7.036-.484 9.914 1.031 1.926.978 1.942-1.359.411-4.41-2.889-9.004 1.165-6.069 5.355 1.43 2.042 1.645 2.082 2.79.517.681-.932 1.84-1.495 2.574-1.25 1.698.566 2.091 4.883.616 6.767-.914 1.169-.777 1.307.736.739 1.307-.491 1.713-.311 1.362.605-.275.716.084 2.102.798 3.078 1.239 1.696 1.392 1.696 3.352.017 1.557-1.332 1.787-2.081.949-3.09-.875-1.055-.712-1.184.787-.622 1.7.639 1.746.532.455-1.053-1.158-1.423-1.186-1.918-.143-2.562.925-.572.973-.996.169-1.493-1.574-.973-.355-2.556 1.969-2.556 1.139 0 1.941.683 1.941 1.655 0 1.488.201 1.473 2-.155 2.646-2.395 2.523-4.111-.433-6.048-1.967-1.289-2.858-1.367-4.652-.407-1.987 1.064-2.133.993-1.405-.679 1.228-2.82.884-6.116-.928-8.882-2.007-3.062-3.026-3.115-5.025-.261m40 0c-1.806 2.578-2.024 7.036-.484 9.914 1.037 1.938.989 1.95-1.433.363-3.208-2.102-6.64-.564-6.64 2.976 0 2.838 1.712 4.212 3.287 2.637.612-.612 1.87-1.113 2.796-1.113 1.837 0 2.138 4.298.485 6.92-.689 1.091-.485 1.262.879.739 1.229-.472 1.622-.281 1.276.622-.275.716.117 2.148.872 3.18 1.329 1.817 1.438 1.819 3.386.057 1.648-1.492 1.786-2.095.765-3.334-1.098-1.332-.949-1.356 1.254-.202 2.436 1.275 2.455 1.259.764-.65-1.387-1.564-1.487-2.224-.5-3.271.982-1.041.978-1.406-.02-1.771-.691-.254-1.002-.872-.691-1.375.765-1.238 4.447-1.168 4.447.085 0 1.934 2.873.975 3.56-1.188.51-1.608.093-2.674-1.573-4.023-2.105-1.705-2.442-1.721-4.721-.228-2.397 1.571-2.435 1.554-1.642-.726 1.281-3.683.819-7.688-1.136-9.848-2.291-2.531-3.018-2.497-4.931.236M107 173.603c-4.125.699-9.612 1.3-12.193 1.334-3.332.045-5.073.589-6 1.874-1.593 2.208-4.527 4.163-3.322 2.214q.793-1.284-.596-.821c-1.136.378-1.389 5.003-1.389 25.379V228.5l20.5.266c11.275.147 21.73.536 23.233.864s3.522.294 4.485-.075c.963-.37 10.758-.758 21.767-.864l20.015-.191.267-25.25c.238-22.433.092-25.25-1.309-25.25-.975 0-1.304.477-.862 1.25.392.688-.618.012-2.246-1.5-2.177-2.023-4.003-2.755-6.905-2.77-2.17-.011-7.741-.637-12.38-1.391-7.327-1.191-9.101-1.175-13.5.122-2.786.821-5.564 1.9-6.175 2.397-.688.561-2.776.189-5.5-.979-6.284-2.694-9.421-2.962-17.89-1.526m-4.333 5.064c-.367.366-.667 1.131-.667 1.7 0 .626.466.567 1.183-.15.651-.651.951-1.416.667-1.7s-.817-.217-1.183.15m3.254 4.584c-.259 3.54-.026 5.751.605 5.75.593 0 .888-1.798.698-4.251-.554-7.143-.864-7.5-1.303-1.499m3.079-4.369c0 .55.45 1.278 1 1.618s1 .168 1-.382-.45-1.278-1-1.618-1-.168-1 .382m3 4.618c0 3.733.402 5.5 1.25 5.501.89.001 1.151-1.582.907-5.5-.445-7.147-2.157-7.149-2.157-.001m28 5.5q0 5 1.25 5t1.25-5-1.25-5-1.25 5m6.521-3.336c1.133 1.133 1.48 2.583 1.086 4.549-.355 1.775-.197 2.652.408 2.278 1.64-1.014 1.171-7.206-.597-7.884-2.492-.956-2.684-.73-.897 1.057M151.5 189c0 2.75.338 5 .75 5s.75-.81.75-1.8.54-2.34 1.2-3c.933-.933.907-1.2-.117-1.2-.824 0-1.121-.748-.793-2 .3-1.148.03-2-.634-2-.721 0-1.156 1.883-1.156 5m4-4c.34.55.816 1 1.059 1s.441-.45.441-1-.477-1-1.059-1-.781.45-.441 1m-55.468 6.564c-.018.585 1.019 3.24 2.303 5.901 1.729 3.583 2.499 4.409 2.968 3.186.349-.908.247-1.651-.226-1.651s-1.114-1.012-1.425-2.25c-.651-2.591-3.573-6.777-3.62-5.186m7.494 2.386c-1.936 3.744-1.966 5.013-.058 2.491 1.376-1.819 1.47-1.705 1.5 1.809.018 2.063.469 3.75 1.004 3.75.539 0 .873-2.45.75-5.492-.122-3.02-.548-5.495-.946-5.5-.399-.004-1.411 1.32-2.25 2.942m6.395 2.301c-.279 3.805-.045 5.751.69 5.75.646 0 .912-1.048.634-2.501-.367-1.921-.059-2.5 1.33-2.5 1.636 0 1.655-.118.2-1.25-.883-.687-1.792-2.15-2.02-3.25s-.603.588-.834 3.751M117.5 192c.34.55.816 1 1.059 1s.441-.45.441-1-.477-1-1.059-1-.781.45-.441 1m38.959 1.067c-.363.586-.445 1.281-.183 1.543s.743-.218 1.069-1.067c.676-1.762.1-2.072-.886-.476m-57.661 6.211c-.361 1.884-.102 2.722.841 2.722 1.509 0 1.583-.571.45-3.472-.692-1.77-.824-1.694-1.291.75m19.222 1.198c-.789.95-.865 1.524-.201 1.524 1.208 0 2.617-1.897 1.924-2.591-.252-.251-1.027.229-1.723 1.067m19.175 3.196c.168 2.569.755 4.82 1.305 5.001.607.199.864-1.638.653-4.672-.19-2.751-.777-5.001-1.304-5.001s-.821 2.102-.654 4.672m6.634-.672c.209 2.2.512 4 .671 4s.462-1.8.671-4c.227-2.375-.046-4-.671-4s-.898 1.625-.671 4m6.897 1.086c1.339 2.798 2.677 4.844 2.973 4.548.849-.849-3.073-9.626-4.303-9.63-.63-.002-.059 2.179 1.33 5.082m5.912-3.586c-.316.825-.09 1.5.503 1.5.643 0 .913 1.412.669 3.5-.296 2.534-.02 3.5.998 3.5.871 0 1.175-.602.799-1.582-.334-.87-.607-3.12-.607-5 0-3.507-1.336-4.592-2.362-1.918m-8.851 5.5c-.272 1.854 0 3 .713 3s.985-1.146.713-3c-.242-1.65-.563-3-.713-3s-.471 1.35-.713 3m-46.708-.417c.048 1.165.285 1.402.604.605.289-.722.253-1.585-.079-1.917s-.568.258-.525 1.312m7 0c.048 1.165.285 1.402.604.605.289-.722.253-1.585-.079-1.917s-.568.258-.525 1.312m2.764 3.917c-.223 3.575.046 5.502.768 5.501.646 0 .912-1.048.634-2.501-.367-1.921-.059-2.5 1.33-2.5 1.725 0 1.724-.061-.037-1.348-1.014-.742-1.542-1.836-1.174-2.431.368-.596.253-1.34-.255-1.654s-1.078 1.903-1.266 4.933M104 210c0 2.75.45 5 1 5s1-2.25 1-5-.45-5-1-5-1 2.25-1 5m11.02 3.476c-.789.95-.865 1.524-.201 1.524 1.208 0 2.617-1.897 1.924-2.591-.252-.251-1.027.229-1.723 1.067m17.206 12.103c.95.991 1.942 1.587 2.205 1.324s-.514-1.074-1.726-1.803c-2.107-1.265-2.128-1.243-.479.479m-38.476 1.083c.688.278 1.813.278 2.5 0 .688-.277.125-.504-1.25-.504s-1.937.227-1.25.504m14 0c.688.278 1.813.278 2.5 0 .688-.277.125-.504-1.25-.504s-1.937.227-1.25.504m40 0c.688.278 1.813.278 2.5 0 .688-.277.125-.504-1.25-.504s-1.937.227-1.25.504m13.519.031c.973.254 2.323.237 3-.037s-.119-.481-1.769-.461-2.204.244-1.231.498"/></svg>